<?xml version="1.0" standalone="no"?>
<!DOCTYPE svg PUBLIC "-//W3C//DTD SVG 20010904//EN"
 "http://www.w3.org/TR/2001/REC-SVG-20010904/DTD/svg10.dtd">
<svg version="1.0" xmlns="http://www.w3.org/2000/svg"
 width="700.000000pt" height="700.000000pt" viewBox="0 0 700.000000 700.000000"
 preserveAspectRatio="xMidYMid meet">
<g transform="translate(0.000000,700.000000) scale(0.100000,-0.100000)"
fill="#000000" stroke="none">
<path d="M3417 5454 c-1 -1 -44 -4 -96 -8 -52 -4 -97 -8 -100 -11 -4 -2 -27
-6 -51 -9 -162 -20 -424 -110 -594 -204 -74 -40 -244 -148 -256 -162 -3 -3
-30 -25 -60 -49 -167 -134 -361 -366 -467 -561 -71 -128 -95 -184 -142 -322
l-36 -108 -808 0 -807 0 2 -512 3 -513 790 -1 c435 -1 798 -2 808 -3 9 -1 17
-8 17 -17 0 -62 129 -359 218 -501 105 -170 279 -369 430 -492 282 -230 658
-385 1036 -427 125 -14 392 -6 506 16 30 6 69 13 85 16 17 2 72 16 122 30 453
122 854 414 1116 811 100 151 222 418 249 543 2 8 6 17 10 20 3 3 367 5 807 4
l801 0 0 513 0 513 -808 0 -808 0 -23 80 c-13 44 -28 83 -32 86 -5 3 -9 13 -9
22 0 25 -99 224 -158 319 -118 191 -269 360 -458 513 -74 60 -328 220 -350
220 -2 0 -27 11 -56 25 -107 50 -290 109 -398 128 -14 3 -36 8 -50 11 -29 6
-71 12 -155 21 -57 7 -273 14 -278 9z"/>
</g>
</svg>
